<?xml version="1.0" encoding="UTF-8" standalone="no"?>
<!-- Created with Inkscape (http://www.inkscape.org/) -->

<svg
   xmlns:dc="http://purl.org/dc/elements/1.1/"
   xmlns:cc="http://creativecommons.org/ns#"
   xmlns:rdf="http://www.w3.org/1999/02/22-rdf-syntax-ns#"
   xmlns:svg="http://www.w3.org/2000/svg"
   xmlns="http://www.w3.org/2000/svg"
   xmlns:sodipodi="http://sodipodi.sourceforge.net/DTD/sodipodi-0.dtd"
   xmlns:inkscape="http://www.inkscape.org/namespaces/inkscape"
   width="2201.3101"
   height="520"
   id="svg3211"
   version="1.1"
   inkscape:version="0.48.4 r9939"
   sodipodi:docname="Neues Dokument 3">
  <defs
     id="defs3213" />
  <sodipodi:namedview
     id="base"
     pagecolor="#ffffff"
     bordercolor="#666666"
     borderopacity="1.0"
     inkscape:pageopacity="0.0"
     inkscape:pageshadow="2"
     inkscape:zoom="0.71058188"
     inkscape:cx="1100.655"
     inkscape:cy="260"
     inkscape:document-units="px"
     inkscape:current-layer="layer1"
     showgrid="false"
     fit-margin-top="0"
     fit-margin-left="0"
     fit-margin-right="0"
     fit-margin-bottom="0"
     inkscape:window-width="1680"
     inkscape:window-height="990"
     inkscape:window-x="-4"
     inkscape:window-y="-4"
     inkscape:window-maximized="1" />
  <metadata
     id="metadata3216">
    <rdf:RDF>
      <cc:Work
         rdf:about="">
        <dc:format>image/svg+xml</dc:format>
        <dc:type
           rdf:resource="http://purl.org/dc/dcmitype/StillImage" />
        <dc:title></dc:title>
      </cc:Work>
    </rdf:RDF>
  </metadata>
  <g
     inkscape:label="Ebene 1"
     inkscape:groupmode="layer"
     id="layer1"
     transform="translate(-171.07384,48.03148)">
    <path
       d="m 675.90482,304.09233 0,67.77869 -494.83143,0 0,90.0975 494.83143,0 0,-67.60249 90.03877,0 0,-90.2737 z"
       style="fill:#ffcb04;fill-opacity:1;fill-rule:nonzero;stroke:none"
       id="path210"
       inkscape:connector-curvature="0"
       sodipodi:nodetypes="ccccccccc" />
    <path
       inkscape:connector-curvature="0"
       d="m 300.1266,-33.215316 -119.05321,0 0,15.975566 c 20.14566,0.187948 33.30201,4.346294 33.30201,38.999178 l 0,282.685302 57.73523,0 0,-110.71302 25.84283,0 70.89157,110.71302 79.93657,0 0,-13.97862 c -16.79784,-0.52625 -28.60331,-14.50722 -39.93892,-28.66204 L 354.57274,185.09785 C 395.98,171.2367 437.9746,138.46329 437.9746,77.204042 c 0,-68.248561 -44.28521,-110.419358 -137.848,-110.419358 z m 0,199.812056 -28.13344,-1.35323 0,-171.6198743 18.14871,0 c 56.56056,0 84.22413,28.3096443 84.22413,85.3988023 0,62.610122 -30.48279,87.571952 -74.2394,87.571952 z m 278.86762,-199.812056 -116.4102,0 0,15.975566 c 20.85046,0 33.47821,5.051099 33.47821,38.999178 l 0,282.685302 57.61776,0 0,-107.3652 12.80395,0 c 90.74357,0 149.3598,-32.83214 149.3598,-114.883123 0,-69.951839 -40.64372,-115.411723 -136.84952,-115.411723 z m -12.51028,203.629746 -12.98015,0 0,-176.7884449 23.14108,0 c 54.79854,0 75.59027,30.9526609 75.59027,91.3896389 0,71.420186 -33.65441,85.398806 -85.7512,85.398806 z M 992.71441,-38.03148 c -82.93199,0 -143.19276,70.128039 -143.19276,173.32315 0,102.72525 59.7909,174.14543 143.19276,174.14543 83.04939,0 143.83879,-69.07084 143.83879,-172.32468 0,-103.195116 -60.437,-175.1439 -143.83879,-175.1439 z m 0,26.6651 c 47.10439,0 80.75879,50.276049 80.75879,146.65805 0,99.90603 -29.1319,147.36286 -80.75879,147.36286 -46.98696,0 -79.58417,-49.80618 -79.58417,-147.36286 0,-98.202746 27.95725,-146.65805 79.58417,-146.65805 z m 384.58819,315.81111 54.7398,0 0,-337.660046 -37.5895,0 0,240.749446 -134.5589,-240.749446 -59.2623,0 0,337.660046 37.1197,0 0,-246.211673 139.5512,246.211673 z m 143.4865,0 156.8777,0 0,-30.13039 -100.0822,0 0,-307.529656 -56.7955,0 0,337.660046 z m 204.8631,0.047 56.0884,0 0,-337.66005 -56.0884,0 0,337.66005 z m 320.921,-0.047 54.6223,0 0,-337.660046 -37.4721,0 -0.1879,240.749446 -134.5002,-240.749446 -59.2623,0 0,337.660046 37.2959,0 -0.188,-246.211673 139.6688,246.211673 z m 143.3689,0 172.4422,0 0,-30.13039 -114.5307,0 0,-133.03183 82.7557,0 0,-29.48432 -82.7557,-0.18795 0,-115.8228547 99.7298,0 0,-29.0144483 -157.6413,0"
       style="fill:#000000;fill-opacity:1;fill-rule:nonzero;stroke:none"
       id="path212" />
  </g>
</svg>
